<?xml version="1.0" encoding="UTF-8" standalone="no"?>
<!-- Generator: Adobe Illustrator 15.0.0, SVG Export Plug-In . SVG Version: 6.00 Build 0)  -->

<svg
   xmlns:dc="http://purl.org/dc/elements/1.1/"
   xmlns:cc="http://creativecommons.org/ns#"
   xmlns:rdf="http://www.w3.org/1999/02/22-rdf-syntax-ns#"
   xmlns:svg="http://www.w3.org/2000/svg"
   xmlns="http://www.w3.org/2000/svg"
   xmlns:sodipodi="http://sodipodi.sourceforge.net/DTD/sodipodi-0.dtd"
   xmlns:inkscape="http://www.inkscape.org/namespaces/inkscape"
   version="1.1"
   id="Layer_1"
   x="0px"
   y="0px"
   width="85"
   height="85"
   viewBox="0 0 85 85"
   enable-background="new 0 0 64 64"
   xml:space="preserve"
   inkscape:version="0.48.4 r9939"
   sodipodi:docname="microcontroller.svg"><metadata
     id="metadata59"><rdf:RDF><cc:Work
         rdf:about=""><dc:format>image/svg+xml</dc:format><dc:type
           rdf:resource="http://purl.org/dc/dcmitype/StillImage" /></cc:Work></rdf:RDF></metadata><defs
     id="defs57" /><sodipodi:namedview
     pagecolor="#ffffff"
     bordercolor="#666666"
     borderopacity="1"
     objecttolerance="10"
     gridtolerance="10"
     guidetolerance="10"
     inkscape:pageopacity="0"
     inkscape:pageshadow="2"
     inkscape:window-width="809"
     inkscape:window-height="480"
     id="namedview55"
     showgrid="false"
     fit-margin-top="0"
     fit-margin-left="0"
     fit-margin-right="0"
     fit-margin-bottom="0"
     inkscape:zoom="3.6875"
     inkscape:cx="29.158"
     inkscape:cy="29.158001"
     inkscape:window-x="531"
     inkscape:window-y="365"
     inkscape:window-maximized="0"
     inkscape:current-layer="Layer_1" /><g
     id="g3"
     transform="matrix(1.457576,0,0,1.457576,-4.142431,-4.142431)"><path
       d="m 44.282,9.785 c 0.48,0 0.871,-0.389 0.871,-0.869 V 3.713 c 0,-0.48 -0.391,-0.871 -0.871,-0.871 -0.479,0 -0.869,0.391 -0.869,0.871 v 5.203 c 0,0.48 0.391,0.869 0.869,0.869 z"
       id="path5"
       inkscape:connector-curvature="0" /><path
       d="m 39.544,9.785 c 0.481,0 0.872,-0.389 0.872,-0.869 V 3.713 c 0,-0.48 -0.391,-0.871 -0.872,-0.871 -0.478,0 -0.868,0.391 -0.868,0.871 v 5.203 c 0,0.48 0.39,0.869 0.868,0.869 z"
       id="path7"
       inkscape:connector-curvature="0" /><path
       d="m 34.719,9.785 c 0.479,0 0.867,-0.389 0.867,-0.869 V 3.713 c 0,-0.48 -0.389,-0.871 -0.867,-0.871 -0.48,0 -0.871,0.391 -0.871,0.871 v 5.203 c 0,0.48 0.39,0.869 0.871,0.869 z"
       id="path9"
       inkscape:connector-curvature="0" /><path
       d="m 29.98,9.785 c 0.479,0 0.869,-0.389 0.869,-0.869 V 3.713 c 0,-0.48 -0.391,-0.871 -0.869,-0.871 -0.48,0 -0.87,0.391 -0.87,0.871 v 5.203 c 0,0.48 0.39,0.869 0.87,0.869 z"
       id="path11"
       inkscape:connector-curvature="0" /><path
       d="m 25.609,9.785 c 0.477,0 0.868,-0.389 0.868,-0.869 V 3.713 c 0,-0.48 -0.391,-0.871 -0.868,-0.871 -0.482,0 -0.871,0.391 -0.871,0.871 v 5.203 c 0,0.48 0.389,0.869 0.871,0.869 z"
       id="path13"
       inkscape:connector-curvature="0" /><path
       d="m 20.87,9.785 c 0.479,0 0.868,-0.389 0.868,-0.869 V 3.713 c 0,-0.48 -0.389,-0.871 -0.868,-0.871 -0.48,0 -0.87,0.39 -0.87,0.871 v 5.203 c 0,0.48 0.39,0.869 0.87,0.869 z"
       id="path15"
       inkscape:connector-curvature="0" /><path
       d="M 8.912,18.761 H 3.711 c -0.48,0 -0.869,0.391 -0.869,0.869 0,0.478 0.389,0.869 0.869,0.869 h 5.201 c 0.482,0 0.871,-0.391 0.871,-0.869 0,-0.478 -0.389,-0.869 -0.871,-0.869 z"
       id="path17"
       inkscape:connector-curvature="0" /><path
       d="M 8.912,23.5 H 3.711 c -0.48,0 -0.869,0.389 -0.869,0.868 0,0.48 0.389,0.869 0.869,0.869 h 5.201 c 0.482,0 0.871,-0.389 0.871,-0.869 0,-0.48 -0.389,-0.868 -0.871,-0.868 z"
       id="path19"
       inkscape:connector-curvature="0" /><path
       d="M 8.912,28.328 H 3.711 c -0.48,0 -0.869,0.389 -0.869,0.871 0,0.479 0.389,0.868 0.869,0.868 h 5.201 c 0.482,0 0.871,-0.389 0.871,-0.868 0,-0.482 -0.389,-0.871 -0.871,-0.871 z"
       id="path21"
       inkscape:connector-curvature="0" /><path
       d="M 8.912,33.064 H 3.711 c -0.48,0 -0.869,0.391 -0.869,0.869 0,0.478 0.389,0.869 0.869,0.869 h 5.201 c 0.482,0 0.871,-0.391 0.871,-0.869 0,-0.478 -0.389,-0.869 -0.871,-0.869 z"
       id="path23"
       inkscape:connector-curvature="0" /><path
       d="M 8.912,37.434 H 3.711 c -0.48,0 -0.869,0.391 -0.869,0.869 0,0.482 0.389,0.873 0.869,0.873 h 5.201 c 0.482,0 0.871,-0.391 0.871,-0.873 0,-0.479 -0.389,-0.869 -0.871,-0.869 z"
       id="path25"
       inkscape:connector-curvature="0" /><path
       d="M 8.912,42.174 H 3.711 c -0.48,0 -0.869,0.388 -0.869,0.869 0,0.479 0.389,0.87 0.869,0.87 h 5.201 c 0.482,0 0.871,-0.391 0.871,-0.87 0,-0.481 -0.389,-0.869 -0.871,-0.869 z"
       id="path27"
       inkscape:connector-curvature="0" /><path
       d="m 44.282,54.217 c -0.479,0 -0.869,0.391 -0.869,0.869 v 5.203 c 0,0.481 0.391,0.869 0.869,0.869 0.48,0 0.871,-0.388 0.871,-0.869 v -5.203 c 0,-0.479 -0.39,-0.869 -0.871,-0.869 z"
       id="path29"
       inkscape:connector-curvature="0" /><path
       d="m 39.544,54.217 c -0.478,0 -0.868,0.391 -0.868,0.869 v 5.203 c 0,0.481 0.391,0.869 0.868,0.869 0.481,0 0.872,-0.388 0.872,-0.869 v -5.203 c 0,-0.479 -0.391,-0.869 -0.872,-0.869 z"
       id="path31"
       inkscape:connector-curvature="0" /><path
       d="m 34.719,54.217 c -0.48,0 -0.871,0.391 -0.871,0.869 v 5.203 c 0,0.481 0.391,0.869 0.871,0.869 0.479,0 0.867,-0.388 0.867,-0.869 v -5.203 c 0,-0.479 -0.389,-0.869 -0.867,-0.869 z"
       id="path33"
       inkscape:connector-curvature="0" /><path
       d="m 29.98,54.217 c -0.48,0 -0.87,0.391 -0.87,0.869 v 5.203 c 0,0.481 0.389,0.869 0.87,0.869 0.479,0 0.869,-0.388 0.869,-0.869 v -5.203 c 0,-0.479 -0.391,-0.869 -0.869,-0.869 z"
       id="path35"
       inkscape:connector-curvature="0" /><path
       d="m 25.609,54.217 c -0.482,0 -0.871,0.391 -0.871,0.869 v 5.203 c 0,0.481 0.389,0.869 0.871,0.869 0.477,0 0.868,-0.388 0.868,-0.869 v -5.203 c 0,-0.479 -0.391,-0.869 -0.868,-0.869 z"
       id="path37"
       inkscape:connector-curvature="0" /><path
       d="m 20.87,54.217 c -0.48,0 -0.871,0.391 -0.871,0.869 v 5.203 c 0,0.481 0.391,0.869 0.871,0.869 0.479,0 0.868,-0.388 0.868,-0.869 v -5.203 c 0,-0.479 -0.389,-0.869 -0.868,-0.869 z"
       id="path39"
       inkscape:connector-curvature="0" /><path
       d="M 46.699,12.062 H 18.451 c -2.964,0 -5.378,2.416 -5.378,5.38 v 28.246 c 0,2.969 2.414,5.385 5.378,5.385 h 28.248 c 2.965,0 5.381,-2.416 5.381,-5.385 V 17.442 c 0,-2.964 -2.416,-5.38 -5.381,-5.38 z m -25.516,8.584 c -0.948,0 -1.716,-0.768 -1.716,-1.714 0,-0.946 0.768,-1.716 1.716,-1.716 0.944,0 1.714,0.77 1.714,1.716 0,0.946 -0.77,1.714 -1.714,1.714 z m 20.48,19.445 H 23.68 V 21.94 h 17.983 v 18.151 z"
       id="path41"
       inkscape:connector-curvature="0" /><path
       d="m 55.083,20.499 h 5.204 c 0.48,0 0.871,-0.391 0.871,-0.869 0,-0.478 -0.391,-0.869 -0.871,-0.869 h -5.204 c -0.479,0 -0.869,0.391 -0.869,0.869 0,0.478 0.39,0.869 0.869,0.869 z"
       id="path43"
       inkscape:connector-curvature="0" /><path
       d="m 60.287,23.5 h -5.204 c -0.479,0 -0.869,0.389 -0.869,0.868 0,0.48 0.391,0.869 0.869,0.869 h 5.204 c 0.48,0 0.871,-0.389 0.871,-0.869 0,-0.48 -0.39,-0.868 -0.871,-0.868 z"
       id="path45"
       inkscape:connector-curvature="0" /><path
       d="m 60.287,28.328 h -5.204 c -0.479,0 -0.869,0.389 -0.869,0.871 0,0.479 0.391,0.868 0.869,0.868 h 5.204 c 0.48,0 0.871,-0.389 0.871,-0.868 0,-0.482 -0.39,-0.871 -0.871,-0.871 z"
       id="path47"
       inkscape:connector-curvature="0" /><path
       d="m 60.287,33.064 h -5.204 c -0.479,0 -0.869,0.391 -0.869,0.869 0,0.478 0.391,0.869 0.869,0.869 h 5.204 c 0.48,0 0.871,-0.391 0.871,-0.869 0,-0.478 -0.39,-0.869 -0.871,-0.869 z"
       id="path49"
       inkscape:connector-curvature="0" /><path
       d="m 60.287,37.434 h -5.204 c -0.479,0 -0.869,0.391 -0.869,0.869 0,0.482 0.391,0.873 0.869,0.873 h 5.204 c 0.48,0 0.871,-0.391 0.871,-0.873 0,-0.479 -0.39,-0.869 -0.871,-0.869 z"
       id="path51"
       inkscape:connector-curvature="0" /><path
       d="m 60.287,42.174 h -5.204 c -0.479,0 -0.869,0.388 -0.869,0.869 0,0.479 0.391,0.87 0.869,0.87 h 5.204 c 0.48,0 0.871,-0.391 0.871,-0.87 0,-0.481 -0.39,-0.869 -0.871,-0.869 z"
       id="path53"
       inkscape:connector-curvature="0" /></g></svg>