<?xml version="1.0" encoding="UTF-8" standalone="no"?>
<!-- Created with Inkscape (http://www.inkscape.org/) -->

<svg
   xmlns:dc="http://purl.org/dc/elements/1.1/"
   xmlns:cc="http://creativecommons.org/ns#"
   xmlns:rdf="http://www.w3.org/1999/02/22-rdf-syntax-ns#"
   xmlns:svg="http://www.w3.org/2000/svg"
   xmlns="http://www.w3.org/2000/svg"
   xmlns:sodipodi="http://sodipodi.sourceforge.net/DTD/sodipodi-0.dtd"
   xmlns:inkscape="http://www.inkscape.org/namespaces/inkscape"
   id="svg3039"
   version="1.1"
   inkscape:version="0.48.2 r9819"
   width="698.49445"
   height="410.55371"
   sodipodi:docname="1b.jpg">
  <metadata
     id="metadata3045">
    <rdf:RDF>
      <cc:Work
         rdf:about="">
        <dc:format>image/svg+xml</dc:format>
        <dc:type
           rdf:resource="http://purl.org/dc/dcmitype/StillImage" />
        <dc:title></dc:title>
      </cc:Work>
    </rdf:RDF>
  </metadata>
  <defs
     id="defs3043">
    <inkscape:perspective
       sodipodi:type="inkscape:persp3d"
       inkscape:vp_x="-13.316934 : 239.38121 : 1"
       inkscape:vp_y="0 : 988.73603 : 0"
       inkscape:vp_z="960.23278 : 239.38121 : 1"
       inkscape:persp3d-origin="473.45792 : 140.50761 : 1"
       id="perspective3049" />
  </defs>
  <sodipodi:namedview
     pagecolor="#ffffff"
     bordercolor="#666666"
     borderopacity="1"
     objecttolerance="10"
     gridtolerance="10"
     guidetolerance="10"
     inkscape:pageopacity="0"
     inkscape:pageshadow="2"
     inkscape:window-width="1920"
     inkscape:window-height="1056"
     id="namedview3041"
     showgrid="false"
     fit-margin-top="10"
     fit-margin-left="10"
     fit-margin-right="10"
     fit-margin-bottom="10"
     inkscape:zoom="0.91523988"
     inkscape:cx="271.25783"
     inkscape:cy="218.1988"
     inkscape:window-x="0"
     inkscape:window-y="24"
     inkscape:window-maximized="1"
     inkscape:current-layer="layer4" />
  <g
     inkscape:groupmode="layer"
     id="layer4"
     inkscape:label="antanae"
     transform="translate(-50.926241,30.56333)">
    <path
       style="fill:#1a1a1a;stroke:none"
       d="M 118.20654,253.8789 97.34656,90.862038 c 6.6958,-3.377498 13.39159,-5.82239 20.08739,-3.090368 l 30.13107,164.56204 c -8.9381,7.72359 -18.37306,11.22384 -29.35848,1.54519 z"
       id="path3217"
       inkscape:connector-curvature="0"
       sodipodi:nodetypes="ccccc" />
    <path
       style="fill:#1a1a1a;stroke:none"
       d="m 84.212501,-17.300807 c 4.506785,-4.496938 9.01357,-3.520972 13.520355,-1.93148 L 142.54318,250.01594 122.0695,253.4926 z"
       id="path3219"
       inkscape:connector-curvature="0"
       sodipodi:nodetypes="ccccc" />
  </g>
  <g
     inkscape:groupmode="layer"
     id="layer1"
     inkscape:label="vector"
     style="display:inline"
     transform="translate(-50.926241,30.56333)">
    <path
       style="fill:#999999;stroke:none"
       d="m 109.26097,236.16096 c 192.65354,-7.06206 383.32479,-6.19494 573.07381,-1.63891 l 55.72309,24.03742 -21.30589,109.80727 C 505.332,370.37045 293.91202,371.37135 82.492035,366.18152 L 62.825059,258.55947 z"
       id="path3069"
       inkscape:connector-curvature="0"
       sodipodi:nodetypes="ccccccc" />
    <path
       style="fill:#4d4d4d;stroke:none"
       d="m 737.29373,258.74588 c -224.86249,-7.32194 -449.72497,-9.1678 -674.587459,1.9802 -3.861374,30.00276 -1.633297,61.52787 8.580858,95.0495 223.747521,8.76622 441.717251,4.05093 659.405941,-1.32013 7.34668,-30.43277 11.50808,-61.77562 6.60066,-95.70957 z"
       id="path3067"
       inkscape:connector-curvature="0"
       sodipodi:nodetypes="ccccc" />
  </g>
  <g
     inkscape:groupmode="layer"
     id="layer3"
     inkscape:label="top"
     style="display:inline"
     transform="translate(-50.926241,30.56333)">
    <path
       style="fill:#1a1a1a;stroke:none"
       d="m 63.917669,324.11604 c 39.422251,0.5408 77.846391,-0.91461 115.816631,-3.27783 33.0238,-21.16335 62.03193,-43.66526 86.31617,-67.7418 158.14964,-2.93462 312.7205,0.0954 466.54435,4.37044 l 0,13.65762 c -65.03013,11.71748 -131.29312,16.03781 -197.76236,19.12067 -14.8884,18.96053 -33.94089,35.83902 -54.63048,51.89896 L 66.649193,341.05149 z"
       id="path3113"
       inkscape:connector-curvature="0"
       sodipodi:nodetypes="ccccccccc" />
    <rect
       style="fill:#1a1a1a;fill-opacity:1;stroke:none"
       id="rect3115"
       width="66.10289"
       height="24.037415"
       x="86.862473"
       y="285.3284" />
  </g>
</svg>
